<svg xmlns="http://www.w3.org/2000/svg" version="1.1" xmlns:xlink="http://www.w3.org/1999/xlink" xmlns:svgjs="http://svgjs.dev/svgjs" width="2000" height="2333" viewBox="0 0 2000 2333"><g transform="matrix(1,0,0,1,1.5377963766776475,0)"><svg viewBox="0 0 240 280" data-background-color="#ffffff" preserveAspectRatio="xMidYMid meet" height="2333" width="2000" xmlns="http://www.w3.org/2000/svg" xmlns:xlink="http://www.w3.org/1999/xlink"><g id="tight-bounds" transform="matrix(1,0,0,1,-0.18453556520131542,0)"><svg viewBox="0 0 240.36872561120026 280" height="280" width="240.36872561120026"><g><svg viewBox="0 0 278.2696 324.1498568579566" height="280" width="240.36872561120026"><g><svg viewBox="0 0 278.2696 324.1498568579566" height="324.1498568579566" width="278.2696"><g id="textblocktransform"><svg viewBox="0 0 278.2696 324.1498568579566" height="324.1498568579566" width="278.2696" id="textblock"><g><svg viewBox="0 0 278.2696 278.2696" height="278.2696" width="278.2696"><g transform="matrix(1,0,0,1,106.16021941529218,82.07256686416025)"><svg viewBox="0 0 65.94916116941567 114.12446627167951" height="114.12446627167951" width="65.94916116941567"><g id="icon-0"><svg xmlns="http://www.w3.org/2000/svg" xmlns:xlink="http://www.w3.org/1999/xlink" version="1.1" x="0" y="0" viewBox="13.823227102984392 0.5456683369321071 36.35286840133289 62.908331663067884" enable-background="new 0 0 64 64" xml:space="preserve" height="114.12446627167951" width="65.94916116941567" class="icon-xg-0" data-fill-palette-color="accent" id="xg-0"><g fill="#d4805c" data-fill-palette-color="accent"><path fill="#ffffff" d="M20.643 18.641c2.052 0.541 4.999-0.118 6.796-1.239 0.097 0.077 0.198 0.149 0.3 0.219 0.181 0.123 0.371 0.239 0.57 0.35 0.237 0.12 0.555 0.262 0.967 0.403 0.022 0.009 0.046 0.02 0.068 0.03 0.252 0.107 0.499 0.183 0.755 0.231 0.237 0.045 0.472 0.064 0.708 0.058 0.237 0.005 0.472-0.014 0.716-0.059 0.248-0.047 0.496-0.123 0.747-0.23 0.023-0.009 0.046-0.02 0.069-0.024 0.411-0.146 0.729-0.288 0.967-0.41 0.199-0.11 0.388-0.226 0.57-0.349 0.13-0.088 0.256-0.181 0.377-0.279 2.515 1.241 5.743 1.772 8.354 0.606 0.302-0.135 0.311-0.483 0.065-0.709-0.092-0.085-0.203-0.149-0.304-0.225-0.518-0.387-0.989-0.8-1.411-1.237-1.441-1.494-2.316-3.283-2.593-5.405-0.046-0.352-0.076-0.714-0.088-1.085-0.009-0.277-0.026-0.555-0.047-0.832-0.078-1.008-0.229-2.014-0.395-3.011-0.023-0.143-0.051-0.285-0.087-0.426-0.196-0.843-0.574-1.625-1.234-2.239-2.78-2.584-6.997-2.959-10.218-0.951-1.012 0.63-1.763 1.426-2.209 2.458-0.134 0.31-0.241 0.641-0.318 0.996-0.237 1.077-0.352 2.163-0.434 3.256-0.018 0.226-0.033 0.452-0.047 0.678-0.022 0.319-0.035 0.643-0.061 0.962-0.024 0.298-0.058 0.594-0.119 0.883-0.39 1.866-1.23 3.439-2.487 4.735-0.456 0.471-0.969 0.905-1.533 1.304C17.982 17.878 20.064 18.488 20.643 18.641z" data-fill-palette-color="accent"></path><g fill="#d4805c" data-fill-palette-color="accent"><path fill="#ffffff" d="M49.724 33.541c-0.327-1.091-0.281-2.366-0.115-3.515 0.534-3.67-1.769-7.047-5.175-6.611-2.303 0.293-3.957-0.391-5.818-1.309-0.994-0.488-2.2-0.718-3.32-0.747-0.247-0.006-0.494-0.011-0.735-0.017-3.285 2.027-5.818 1.097-7.415-0.023-0.632 0-1.258 0-1.884-0.011-2.849-0.029-5.146 1.12-6.381 3.607-1.775 3.572-3.452 7.225-4.704 11.004-1.005 3.038 0.167 5.904 3.061 6.904 2.213 0.764 2.855 1.782 2.817 3.095-0.023 0.8-4.395 12.378-5.842 17.536h30.432c-0.867-3.257-5.122-15.915-5.972-19.258 2.384-0.592 4.658-0.959 6.783-1.734C49.632 40.927 50.982 37.774 49.724 33.541zM42.303 38.308c0 0-7.087 0.195-7.564 2.969 0 0-4.98-1.534-6.892-0.862 0 0-0.477-0.764 0-1.149l8.518-6.892c0 0 4.79-2.774 6.8 2.774C43.165 35.149 43.544 37.257 42.303 38.308zM44.216 32.53c-2.183 0-3.951-1.769-3.951-3.946 0-2.183 1.769-3.951 3.951-3.951 2.182 0 3.946 1.769 3.946 3.951C48.162 30.761 46.399 32.53 44.216 32.53z" data-fill-palette-color="accent"></path></g></g></svg></g></svg></g><g id="text-0"><path d="M31.092 85.911l3.396 1.189-6.706 19.168-26.7-9.341 2.574-7.359 23.304 8.154z" fill="#ffffff" data-fill-palette-color="primary"></path><path d="M50.382 46.332v0c0.909 0.75 1.665 1.576 2.266 2.476 0.592 0.901 1.051 1.846 1.377 2.835 0.321 0.985 0.503 2.005 0.546 3.06 0.038 1.05-0.052 2.092-0.272 3.123-0.224 1.027-0.575 2.038-1.052 3.032-0.478 0.984-1.076 1.911-1.792 2.779v0c-0.72 0.873-1.516 1.635-2.387 2.286-0.881 0.652-1.805 1.186-2.771 1.601-0.971 0.411-1.976 0.697-3.015 0.859-1.044 0.158-2.08 0.173-3.107 0.045-1.033-0.132-2.049-0.408-3.047-0.827-1.008-0.418-1.961-0.999-2.86-1.74v0c-0.899-0.742-1.647-1.565-2.244-2.471-0.607-0.905-1.073-1.851-1.398-2.841-0.321-0.985-0.5-2.003-0.538-3.053-0.043-1.055 0.047-2.096 0.271-3.123 0.219-1.032 0.567-2.04 1.046-3.025 0.469-0.984 1.064-1.912 1.783-2.784v0c0.716-0.868 1.514-1.628 2.396-2.28 0.88-0.662 1.806-1.198 2.777-1.609 0.966-0.415 1.971-0.701 3.015-0.86 1.039-0.162 2.072-0.179 3.1-0.051 1.033 0.132 2.053 0.407 3.061 0.826 0.998 0.419 1.947 1 2.845 1.742zM46.08 51.545v0c-0.486-0.401-1.02-0.798-1.601-1.189-0.586-0.387-1.194-0.73-1.824-1.031-0.625-0.296-1.273-0.528-1.944-0.695-0.666-0.172-1.318-0.24-1.955-0.203-0.631 0.041-1.249 0.204-1.852 0.488-0.598 0.288-1.149 0.738-1.654 1.35v0c-0.483 0.585-0.802 1.196-0.958 1.832-0.15 0.64-0.183 1.281-0.097 1.923 0.091 0.646 0.286 1.282 0.587 1.907 0.291 0.627 0.64 1.226 1.046 1.799 0.401 0.568 0.842 1.103 1.323 1.606 0.48 0.493 0.953 0.932 1.419 1.315v0c0.465 0.384 0.988 0.767 1.568 1.15 0.58 0.373 1.189 0.704 1.829 0.994 0.644 0.294 1.302 0.525 1.972 0.692 0.666 0.172 1.323 0.239 1.969 0.201 0.651-0.034 1.274-0.187 1.869-0.46 0.6-0.269 1.141-0.697 1.624-1.282v0c0.5-0.606 0.83-1.23 0.991-1.871 0.17-0.642 0.212-1.284 0.126-1.926-0.086-0.642-0.273-1.266-0.562-1.874-0.29-0.617-0.643-1.212-1.059-1.783-0.411-0.567-0.861-1.102-1.352-1.603-0.49-0.492-0.978-0.939-1.465-1.34z" fill="#ffffff" data-fill-palette-color="primary"></path><path d="M88.393 19.019v0c0.754 1.333 1.378 2.813 1.872 4.442 0.497 1.634 0.846 3.309 1.047 5.026 0.204 1.722 0.249 3.425 0.135 5.109-0.114 1.684-0.403 3.242-0.869 4.673v0l-2.842 0.056c-0.011-0.749-0.08-1.551-0.206-2.406-0.129-0.861-0.307-1.753-0.534-2.677-0.223-0.917-0.485-1.847-0.786-2.79-0.3-0.943-0.625-1.861-0.975-2.754-0.349-0.892-0.712-1.746-1.087-2.561-0.385-0.818-0.768-1.563-1.149-2.235v0c-0.25-0.442-0.534-0.909-0.85-1.399-0.322-0.487-0.683-0.953-1.082-1.396-0.393-0.447-0.813-0.852-1.26-1.214-0.45-0.368-0.924-0.641-1.421-0.819-0.501-0.184-1.029-0.263-1.583-0.237-0.548 0.022-1.114 0.199-1.698 0.529v0c-0.566 0.32-1 0.737-1.301 1.25-0.299 0.504-0.501 1.062-0.605 1.675-0.108 0.606-0.134 1.248-0.079 1.924 0.062 0.673 0.177 1.337 0.344 1.99 0.164 0.647 0.366 1.265 0.605 1.853 0.246 0.585 0.49 1.093 0.734 1.524v0l5.603 9.897-5.802 3.285-11.177-19.742 2.229-1.262 5.249 3.102c-0.116-0.947-0.111-1.868 0.012-2.763 0.13-0.899 0.368-1.743 0.717-2.532 0.351-0.783 0.828-1.501 1.432-2.153 0.6-0.659 1.328-1.231 2.183-1.715v0c1.368-0.774 2.684-1.228 3.949-1.36 1.268-0.126 2.462 0.016 3.581 0.426 1.12 0.41 2.153 1.066 3.101 1.97 0.944 0.898 1.782 1.993 2.513 3.284z" fill="#ffffff" data-fill-palette-color="primary"></path><path d="M117.515 13.498v0c0.824 0.064 1.647 0.091 2.467 0.08 0.819-0.017 1.638-0.086 2.456-0.206v0c0.851-0.125 1.634-0.322 2.348-0.591 0.707-0.268 1.301-0.633 1.781-1.094 0.48-0.461 0.831-1.033 1.053-1.716 0.215-0.682 0.253-1.496 0.114-2.441v0c-0.112-0.764-0.318-1.446-0.618-2.046-0.301-0.606-0.69-1.108-1.166-1.503-0.475-0.389-1.029-0.667-1.664-0.835-0.627-0.168-1.337-0.194-2.127-0.078v0c-0.737 0.108-1.381 0.343-1.931 0.704-0.551 0.355-1.017 0.796-1.398 1.325-0.381 0.529-0.685 1.118-0.912 1.767-0.226 0.656-0.394 1.332-0.504 2.026-0.111 0.688-0.164 1.377-0.159 2.068 0.011 0.683 0.061 1.323 0.149 1.92v0c0.016 0.107 0.031 0.211 0.045 0.312 0.016 0.107 0.038 0.21 0.066 0.308zM133.045 6.689v0c0.136 0.925 0.109 1.768-0.081 2.529-0.19 0.761-0.503 1.45-0.939 2.069-0.43 0.618-0.955 1.167-1.576 1.649-0.615 0.474-1.288 0.884-2.018 1.231-0.729 0.354-1.491 0.643-2.287 0.87-0.796 0.22-1.577 0.385-2.341 0.497v0c-0.972 0.143-1.941 0.216-2.906 0.221-0.966-0.002-1.93-0.083-2.891-0.243v0c0.266 0.831 0.613 1.609 1.041 2.333 0.422 0.726 0.933 1.339 1.533 1.84 0.608 0.5 1.315 0.865 2.123 1.096 0.807 0.224 1.726 0.26 2.759 0.109v0c0.691-0.101 1.329-0.301 1.915-0.6 0.593-0.299 1.123-0.675 1.592-1.127 0.461-0.451 0.852-0.964 1.171-1.538 0.319-0.581 0.553-1.204 0.702-1.87v0l2.999 0.628c-0.279 1.089-0.735 2.06-1.37 2.913-0.635 0.853-1.39 1.591-2.264 2.213-0.867 0.627-1.809 1.135-2.828 1.524-1.026 0.383-2.055 0.651-3.087 0.802v0c-1.71 0.251-3.334 0.195-4.874-0.168-1.533-0.364-2.901-0.985-4.105-1.863-1.198-0.886-2.201-2.002-3.009-3.35-0.808-1.354-1.338-2.886-1.588-4.595v0c-0.251-1.71-0.183-3.326 0.203-4.848 0.385-1.529 1.025-2.886 1.919-4.072 0.9-1.194 2.032-2.185 3.396-2.974 1.37-0.79 2.91-1.311 4.619-1.562v0c0.825-0.121 1.681-0.188 2.57-0.202 0.883-0.006 1.751 0.055 2.605 0.183 0.855 0.135 1.675 0.35 2.458 0.646 0.783 0.296 1.489 0.699 2.119 1.209 0.623 0.511 1.149 1.133 1.578 1.865 0.429 0.731 0.717 1.593 0.862 2.585z" fill="#ffffff" data-fill-palette-color="primary"></path><path d="M175.405 19.985v0c-0.2 0.976-0.517 1.813-0.951 2.513-0.441 0.698-0.961 1.276-1.56 1.734-0.606 0.457-1.279 0.806-2.02 1.049-0.748 0.241-1.528 0.399-2.339 0.474-0.811 0.076-1.642 0.078-2.492 0.008-0.857-0.072-1.693-0.192-2.51-0.36v0c-1.109-0.227-2.07-0.497-2.884-0.809-0.821-0.314-1.585-0.706-2.291-1.176-0.705-0.477-1.387-1.042-2.048-1.697-0.661-0.654-1.386-1.44-2.173-2.355v0l4.429-2.318c0.21 0.728 0.546 1.416 1.008 2.064 0.462 0.648 0.962 1.228 1.5 1.74 0.538 0.512 1.075 0.93 1.611 1.254 0.535 0.324 0.982 0.523 1.34 0.597v0c0.292 0.06 0.626 0.118 1.002 0.174 0.376 0.056 0.762 0.094 1.16 0.114 0.396 0.026 0.792 0.017 1.188-0.026 0.395-0.037 0.759-0.124 1.092-0.264 0.326-0.141 0.606-0.342 0.84-0.606 0.235-0.27 0.396-0.617 0.483-1.042v0c0.089-0.431 0.057-0.836-0.093-1.212-0.159-0.372-0.392-0.717-0.701-1.036-0.309-0.313-0.679-0.599-1.11-0.861-0.431-0.261-0.865-0.506-1.302-0.734-0.445-0.223-0.874-0.428-1.284-0.617-0.419-0.183-0.778-0.353-1.078-0.511v0c-0.557-0.287-1.146-0.585-1.768-0.892-0.615-0.306-1.221-0.638-1.819-0.996-0.598-0.358-1.154-0.749-1.668-1.173-0.521-0.425-0.96-0.899-1.317-1.421-0.356-0.523-0.604-1.103-0.743-1.74-0.146-0.639-0.138-1.35 0.023-2.133v0c0.294-1.434 0.826-2.577 1.596-3.429 0.77-0.852 1.683-1.474 2.738-1.866 1.056-0.392 2.206-0.585 3.45-0.579 1.245 0 2.482 0.125 3.71 0.378v0c0.85 0.174 1.725 0.444 2.625 0.808 0.901 0.365 1.757 0.807 2.571 1.327 0.812 0.526 1.553 1.111 2.223 1.753 0.671 0.643 1.2 1.332 1.589 2.069v0l-4.433 2.338c-0.127-0.829-0.36-1.565-0.699-2.208-0.345-0.645-0.747-1.198-1.206-1.659-0.459-0.461-0.95-0.831-1.473-1.111-0.522-0.287-1.022-0.48-1.5-0.578v0c-0.458-0.094-0.98-0.18-1.566-0.259-0.586-0.079-1.152-0.081-1.7-0.006-0.541 0.076-1.025 0.26-1.452 0.552-0.427 0.293-0.706 0.761-0.838 1.406v0c-0.095 0.465-0.07 0.881 0.075 1.25 0.146 0.369 0.367 0.708 0.663 1.018 0.296 0.31 0.65 0.59 1.062 0.84 0.405 0.249 0.828 0.481 1.268 0.696 0.432 0.22 0.858 0.418 1.279 0.595 0.419 0.183 0.791 0.359 1.116 0.53v0c0.557 0.287 1.146 0.585 1.768 0.892 0.628 0.309 1.241 0.642 1.838 1 0.591 0.356 1.154 0.745 1.691 1.166 0.535 0.428 0.983 0.907 1.344 1.438 0.356 0.523 0.61 1.104 0.763 1.744 0.146 0.639 0.137 1.356-0.027 2.153z" fill="#ffffff" data-fill-palette-color="primary"></path><path d="M209.724 21.95l-10.115 17.317-5.749-3.358 10.115-17.317-3.563-2.081 1.328-2.273 3.563 2.081 4.209-7.205 5.749 3.358-4.209 7.205 5.933 3.466-1.328 2.273z" fill="#ffffff" data-fill-palette-color="primary"></path><path d="M251.533 56.558l-16.995 15.029-4.397-4.972 2.033-1.798c-1.328 0.125-2.553-0.058-3.675-0.55-1.117-0.486-2.114-1.224-2.989-2.214v0c-1.145-1.294-1.94-2.654-2.385-4.078-0.44-1.429-0.571-2.851-0.393-4.266 0.173-1.41 0.634-2.781 1.383-4.113 0.748-1.322 1.742-2.531 2.98-3.626v0c1.234-1.091 2.555-1.929 3.964-2.514 1.408-0.576 2.825-0.866 4.251-0.87 1.421 0.001 2.813 0.307 4.178 0.919 1.364 0.612 2.619 1.565 3.763 2.859v0c0.579 0.655 1.032 1.367 1.36 2.136 0.332 0.764 0.538 1.555 0.617 2.371 0.08 0.807 0.035 1.625-0.136 2.454-0.17 0.82-0.469 1.613-0.895 2.379v0l5.646-1.057zM238.649 59.036v0c0.442-0.391 0.886-0.824 1.333-1.301 0.452-0.481 0.872-0.988 1.26-1.521 0.383-0.529 0.707-1.082 0.973-1.661 0.27-0.574 0.443-1.161 0.519-1.761 0.075-0.6 0.023-1.196-0.157-1.788-0.175-0.596-0.511-1.176-1.009-1.74v0c-0.494-0.558-1.024-0.953-1.591-1.185-0.562-0.236-1.143-0.351-1.743-0.345-0.6 0.006-1.207 0.108-1.819 0.306-0.603 0.198-1.194 0.455-1.775 0.77-0.577 0.32-1.129 0.672-1.656 1.057-0.518 0.386-0.993 0.77-1.425 1.151v0c-0.431 0.382-0.875 0.81-1.332 1.287-0.447 0.477-0.864 0.981-1.252 1.514-0.383 0.538-0.713 1.096-0.988 1.675-0.271 0.583-0.444 1.17-0.519 1.761-0.08 0.595-0.039 1.188 0.121 1.779 0.166 0.586 0.495 1.159 0.989 1.717v0c0.453 0.513 0.959 0.875 1.518 1.087 0.563 0.207 1.153 0.306 1.767 0.295 0.62-0.015 1.248-0.118 1.884-0.309 0.631-0.196 1.244-0.44 1.838-0.729 0.594-0.3 1.155-0.632 1.682-0.999 0.531-0.361 0.992-0.714 1.382-1.06z" fill="#ffffff" data-fill-palette-color="primary"></path><path d="M270.764 100.517v0l-7.117-1.258c0.431-0.333 0.908-0.734 1.431-1.204 0.523-0.47 0.985-0.978 1.385-1.524 0.4-0.546 0.689-1.125 0.867-1.739 0.175-0.619 0.144-1.239-0.095-1.858v0c-0.221-0.575-0.562-1.018-1.023-1.328-0.452-0.305-0.969-0.517-1.55-0.633-0.586-0.108-1.21-0.144-1.872-0.108-0.667 0.039-1.324 0.125-1.97 0.257-0.648 0.126-1.255 0.276-1.82 0.45-0.569 0.183-1.055 0.352-1.46 0.508v0l-10.615 4.085-2.395-6.222 21.173-8.149 0.92 2.39-3.969 4.403c0.931 0.041 1.812 0.152 2.644 0.333 0.834 0.187 1.605 0.472 2.311 0.853 0.702 0.39 1.329 0.897 1.881 1.52 0.546 0.625 0.995 1.396 1.347 2.313v0c0.185 0.481 0.351 1.026 0.5 1.637 0.144 0.62 0.23 1.248 0.256 1.884 0.027 0.636-0.02 1.249-0.141 1.84-0.125 0.6-0.354 1.117-0.688 1.55z" fill="#ffffff" data-fill-palette-color="primary"></path><path d="M16.723 198.89l-3.712 1.331-7.521-20.973 29.211-10.474 2.885 8.046-25.498 9.143z" fill="#ffffff" data-fill-palette-color="primary"></path><path d="M51.963 232.355v0c-0.994 0.829-2.038 1.476-3.133 1.94-1.09 0.46-2.2 0.764-3.33 0.913-1.129 0.148-2.269 0.137-3.417-0.034-1.139-0.17-2.242-0.476-3.309-0.919-1.066-0.452-2.083-1.037-3.053-1.755-0.975-0.713-1.857-1.543-2.648-2.49v0c-0.79-0.947-1.447-1.961-1.97-3.042-0.528-1.077-0.917-2.178-1.168-3.302-0.249-1.134-0.355-2.276-0.318-3.428 0.042-1.156 0.236-2.276 0.584-3.361 0.344-1.09 0.844-2.13 1.501-3.119 0.658-0.999 1.478-1.909 2.461-2.729v0c0.978-0.816 2.017-1.459 3.118-1.928 1.091-0.469 2.206-0.778 3.345-0.925 1.129-0.148 2.264-0.138 3.403 0.033 1.139 0.17 2.244 0.479 3.316 0.926 1.061 0.447 2.077 1.024 3.048 1.733 0.965 0.712 1.843 1.542 2.633 2.489v0c0.79 0.947 1.452 1.961 1.984 3.043 0.527 1.087 0.918 2.195 1.173 3.324 0.245 1.129 0.349 2.269 0.312 3.42-0.032 1.157-0.222 2.277-0.57 3.362-0.353 1.089-0.856 2.131-1.508 3.126-0.658 0.999-1.476 1.907-2.454 2.723zM47.209 226.659v0c0.525-0.439 1.061-0.934 1.606-1.486 0.536-0.553 1.026-1.139 1.472-1.758 0.455-0.618 0.838-1.269 1.15-1.953 0.317-0.688 0.519-1.377 0.605-2.068 0.091-0.694 0.044-1.391-0.144-2.091-0.186-0.71-0.559-1.4-1.119-2.071v0c-0.534-0.64-1.13-1.105-1.787-1.395-0.661-0.295-1.346-0.461-2.055-0.495-0.709-0.035-1.433 0.044-2.172 0.237-0.735 0.198-1.451 0.456-2.148 0.773-0.697 0.317-1.361 0.686-1.99 1.105-0.639 0.419-1.211 0.839-1.716 1.26v0c-0.51 0.426-1.025 0.913-1.546 1.463-0.525 0.544-1.012 1.136-1.459 1.773-0.442 0.634-0.824 1.292-1.145 1.976-0.312 0.684-0.516 1.38-0.614 2.088-0.092 0.704-0.052 1.407 0.12 2.11 0.173 0.694 0.527 1.361 1.061 2.001v0c0.551 0.661 1.157 1.148 1.817 1.463 0.66 0.305 1.343 0.477 2.046 0.516 0.704 0.039 1.418-0.036 2.142-0.225 0.724-0.19 1.433-0.451 2.127-0.783 0.698-0.327 1.367-0.704 2.007-1.132 0.63-0.429 1.211-0.865 1.742-1.308z" fill="#ffffff" data-fill-palette-color="primary"></path><path d="M91.923 256.05v0c-0.824 1.472-1.862 2.902-3.113 4.291-1.245 1.392-2.616 2.674-4.112 3.848-1.493 1.168-3.063 2.176-4.711 3.024-1.642 0.851-3.272 1.468-4.892 1.85v0l-1.656-2.639c0.688-0.438 1.4-0.96 2.135-1.566 0.739-0.612 1.475-1.282 2.21-2.012 0.729-0.733 1.451-1.51 2.167-2.328 0.715-0.819 1.392-1.647 2.032-2.485 0.64-0.838 1.235-1.665 1.786-2.483 0.545-0.821 1.025-1.601 1.439-2.34v0c0.275-0.491 0.55-1.024 0.826-1.599 0.276-0.576 0.512-1.177 0.708-1.806 0.187-0.625 0.327-1.25 0.42-1.873 0.087-0.627 0.071-1.23-0.047-1.809-0.116-0.57-0.339-1.107-0.671-1.61-0.341-0.501-0.83-0.931-1.469-1.289v0c-0.627-0.351-1.265-0.522-1.914-0.513-0.64 0.006-1.279 0.134-1.916 0.384-0.627 0.247-1.243 0.589-1.846 1.028-0.6 0.433-1.156 0.914-1.669 1.442-0.519 0.525-0.986 1.067-1.401 1.627-0.409 0.563-0.745 1.081-1.01 1.554v0l-6.099 10.891-6.376-3.571 12.163-21.719 2.447 1.371 0.073 6.693c0.825-0.641 1.694-1.16 2.608-1.557 0.914-0.397 1.837-0.653 2.771-0.767 0.937-0.12 1.885-0.086 2.844 0.102 0.956 0.193 1.903 0.553 2.843 1.08v0c1.502 0.841 2.674 1.82 3.517 2.936 0.846 1.111 1.393 2.31 1.642 3.599 0.252 1.283 0.224 2.623-0.083 4.019-0.306 1.405-0.854 2.815-1.646 4.228z" fill="#ffffff" data-fill-palette-color="primary"></path><path d="M117.543 264.92v0c0.857 0.328 1.716 0.611 2.579 0.85 0.869 0.24 1.75 0.424 2.642 0.551v0c0.939 0.134 1.824 0.168 2.655 0.101 0.83-0.06 1.57-0.259 2.221-0.597 0.65-0.332 1.195-0.822 1.637-1.471 0.435-0.65 0.726-1.495 0.874-2.534v0c0.12-0.839 0.118-1.622-0.003-2.352-0.129-0.73-0.382-1.376-0.761-1.936-0.379-0.56-0.874-1.025-1.485-1.392-0.617-0.375-1.359-0.625-2.224-0.749v0c-0.812-0.116-1.564-0.069-2.258 0.14-0.686 0.203-1.31 0.522-1.872 0.955-0.562 0.44-1.065 0.967-1.509 1.582-0.444 0.621-0.832 1.278-1.163 1.97-0.331 0.692-0.6 1.403-0.808 2.133-0.206 0.724-0.355 1.411-0.448 2.061v0c-0.016 0.114-0.033 0.228-0.048 0.343-0.016 0.114-0.026 0.229-0.029 0.345zM136.006 262.593v0c-0.143 1.006-0.433 1.882-0.867 2.628-0.442 0.745-0.987 1.375-1.635 1.892-0.649 0.517-1.371 0.927-2.168 1.231-0.797 0.311-1.634 0.537-2.509 0.679-0.876 0.142-1.768 0.207-2.677 0.194-0.902-0.012-1.772-0.078-2.61-0.198v0c-1.067-0.152-2.109-0.376-3.128-0.672-1.019-0.296-2.008-0.68-2.968-1.152v0c0.02 0.961 0.141 1.889 0.363 2.783 0.222 0.894 0.569 1.697 1.043 2.407 0.479 0.719 1.109 1.322 1.888 1.81 0.779 0.488 1.739 0.813 2.88 0.975v0c0.751 0.107 1.485 0.095 2.202-0.035 0.717-0.131 1.389-0.36 2.018-0.688 0.623-0.336 1.193-0.757 1.71-1.265 0.516-0.501 0.958-1.082 1.326-1.741v0l2.956 1.591c-0.63 1.06-1.413 1.941-2.348 2.643-0.934 0.695-1.956 1.237-3.066 1.627-1.109 0.383-2.259 0.623-3.449 0.719-1.197 0.089-2.366 0.053-3.506-0.109v0c-1.878-0.268-3.567-0.834-5.066-1.698-1.507-0.858-2.752-1.939-3.737-3.243-0.992-1.298-1.705-2.782-2.137-4.453-0.425-1.676-0.504-3.453-0.236-5.332v0c0.268-1.878 0.839-3.559 1.715-5.043 0.882-1.483 1.982-2.712 3.298-3.687 1.309-0.97 2.807-1.66 4.494-2.07 1.68-0.404 3.459-0.472 5.337-0.204v0c0.912 0.13 1.836 0.327 2.77 0.59 0.934 0.263 1.831 0.597 2.692 1 0.852 0.409 1.646 0.888 2.382 1.438 0.735 0.557 1.352 1.202 1.849 1.937 0.499 0.728 0.858 1.543 1.079 2.443 0.226 0.908 0.262 1.909 0.105 3.003z" fill="#ffffff" data-fill-palette-color="primary"></path><path d="M178.423 265.341v0c0.221 1.068 0.264 2.049 0.131 2.941-0.14 0.894-0.413 1.701-0.818 2.421-0.411 0.722-0.939 1.367-1.582 1.936-0.65 0.57-1.367 1.068-2.151 1.493-0.784 0.425-1.622 0.789-2.515 1.091-0.886 0.301-1.78 0.544-2.683 0.731v0c-1.208 0.25-2.293 0.391-3.254 0.423-0.961 0.039-1.901-0.026-2.822-0.195-0.914-0.171-1.845-0.442-2.794-0.813-0.95-0.378-2.021-0.855-3.213-1.433v0l3.459-4.254c0.526 0.638 1.162 1.185 1.907 1.64 0.751 0.454 1.508 0.82 2.271 1.098 0.758 0.286 1.479 0.476 2.163 0.57 0.677 0.095 1.211 0.103 1.603 0.022v0c0.325-0.067 0.691-0.153 1.098-0.259 0.401-0.104 0.806-0.232 1.218-0.386 0.406-0.146 0.801-0.328 1.184-0.546 0.379-0.21 0.705-0.457 0.978-0.742 0.275-0.278 0.471-0.602 0.588-0.972 0.124-0.372 0.138-0.79 0.042-1.255v0c-0.099-0.478-0.308-0.87-0.628-1.178-0.32-0.308-0.706-0.553-1.158-0.736-0.448-0.191-0.942-0.324-1.484-0.399-0.549-0.08-1.094-0.137-1.634-0.171-0.54-0.034-1.06-0.054-1.559-0.061-0.5-0.007-0.936-0.025-1.308-0.052v0c-0.689-0.051-1.411-0.096-2.166-0.133-0.756-0.044-1.512-0.117-2.266-0.217-0.754-0.1-1.488-0.253-2.201-0.458-0.707-0.207-1.351-0.496-1.934-0.867-0.588-0.37-1.091-0.844-1.508-1.422-0.418-0.585-0.716-1.305-0.893-2.161v0c-0.325-1.573-0.286-2.958 0.117-4.155 0.404-1.191 1.055-2.211 1.952-3.06 0.896-0.856 1.969-1.552 3.222-2.088 1.252-0.536 2.555-0.943 3.909-1.223v0c0.929-0.192 1.924-0.301 2.984-0.326 1.068-0.02 2.125 0.055 3.171 0.226 1.052 0.17 2.055 0.437 3.009 0.8 0.954 0.363 1.784 0.832 2.491 1.406v0l-3.455 4.274c-0.479-0.78-1.034-1.419-1.663-1.919-0.624-0.508-1.268-0.894-1.931-1.158-0.664-0.264-1.32-0.426-1.969-0.486-0.648-0.053-1.233-0.025-1.757 0.083v0c-0.504 0.104-1.068 0.241-1.69 0.412-0.629 0.171-1.201 0.414-1.718 0.729-0.51 0.313-0.919 0.709-1.228 1.188-0.301 0.484-0.379 1.078-0.234 1.781v0c0.104 0.504 0.31 0.912 0.616 1.222 0.306 0.31 0.675 0.556 1.107 0.737 0.433 0.187 0.913 0.316 1.44 0.387 0.521 0.079 1.048 0.133 1.58 0.161 0.532 0.028 1.047 0.043 1.545 0.044 0.504-0.007 0.956 0.006 1.358 0.041v0c0.682 0.053 1.408 0.1 2.177 0.142 0.762 0.036 1.52 0.105 2.274 0.205 0.754 0.1 1.491 0.249 2.21 0.446 0.726 0.196 1.383 0.482 1.973 0.858 0.59 0.376 1.101 0.855 1.532 1.438 0.424 0.577 0.726 1.303 0.907 2.178z" fill="#ffffff" data-fill-palette-color="primary"></path><path d="M200.35 239.584l11.036 19.038-6.322 3.665-11.036-19.038-3.914 2.268-1.447-2.497 3.913-2.268-4.593-7.923 6.323-3.666 4.593 7.924 6.524-3.783 1.448 2.498z" fill="#ffffff" data-fill-palette-color="primary"></path><path d="M233.92 204.744l18.499 16.656-4.876 5.416-2.213-1.993c0.3 1.428 0.256 2.784-0.133 4.067-0.389 1.282-1.07 2.465-2.045 3.547v0c-1.265 1.405-2.65 2.437-4.155 3.097-1.501 0.654-3.032 0.977-4.592 0.967-1.565-0.014-3.115-0.348-4.651-1.001-1.546-0.653-2.991-1.585-4.336-2.795v0c-1.345-1.211-2.42-2.548-3.226-4.012-0.811-1.459-1.305-2.966-1.482-4.522-0.177-1.555-0.017-3.111 0.482-4.667 0.498-1.566 1.38-3.052 2.645-4.457v0c0.644-0.715 1.364-1.302 2.161-1.762 0.797-0.45 1.632-0.769 2.504-0.959 0.873-0.19 1.772-0.242 2.698-0.155 0.916 0.086 1.816 0.313 2.699 0.679v0l-1.856-6.021zM238.225 218.481v0c-0.478-0.431-1.007-0.861-1.587-1.291-0.575-0.435-1.178-0.828-1.81-1.179-0.628-0.356-1.272-0.643-1.931-0.863-0.669-0.219-1.332-0.333-1.99-0.342-0.662-0.004-1.306 0.128-1.93 0.396-0.629 0.263-1.218 0.7-1.767 1.309v0c-0.549 0.609-0.914 1.238-1.095 1.885-0.187 0.643-0.242 1.291-0.165 1.945 0.087 0.653 0.275 1.3 0.563 1.943 0.293 0.637 0.648 1.249 1.068 1.836 0.415 0.592 0.866 1.149 1.354 1.671 0.483 0.526 0.959 1 1.428 1.422v0c0.473 0.426 1 0.854 1.578 1.285 0.575 0.435 1.178 0.828 1.811 1.179 0.623 0.351 1.269 0.641 1.939 0.87 0.669 0.219 1.33 0.336 1.983 0.349 0.658 0.009 1.299-0.111 1.924-0.36 0.62-0.253 1.204-0.685 1.753-1.294v0c0.499-0.554 0.83-1.149 0.993-1.786 0.158-0.642 0.193-1.298 0.106-1.971-0.093-0.667-0.284-1.336-0.574-2.006-0.289-0.661-0.632-1.298-1.028-1.911-0.401-0.608-0.832-1.177-1.292-1.71-0.46-0.532-0.904-0.991-1.331-1.377z" fill="#ffffff" data-fill-palette-color="primary"></path><path d="M252.524 169.791v0l4.798 6.313c-0.592-0.053-1.272-0.083-2.043-0.089-0.768-0.013-1.518 0.049-2.251 0.188-0.729 0.148-1.392 0.402-1.987 0.763-0.604 0.365-1.042 0.888-1.312 1.568v0c-0.25 0.63-0.306 1.238-0.168 1.826 0.139 0.587 0.399 1.143 0.782 1.666 0.389 0.526 0.866 1.022 1.432 1.488 0.566 0.466 1.157 0.886 1.773 1.262 0.616 0.376 1.219 0.703 1.809 0.981 0.59 0.278 1.105 0.505 1.545 0.68v0l11.6 4.609-2.698 6.791-23.133-9.19 1.035-2.607 6.482-0.597c-0.721-0.717-1.351-1.463-1.889-2.238-0.534-0.766-0.94-1.569-1.219-2.409-0.281-0.834-0.409-1.705-0.383-2.613 0.022-0.917 0.232-1.877 0.629-2.878v0c0.205-0.516 0.479-1.078 0.823-1.686 0.337-0.61 0.731-1.179 1.181-1.707 0.453-0.535 0.95-0.997 1.492-1.387 0.539-0.384 1.106-0.629 1.702-0.734z" fill="#ffffff" data-fill-palette-color="primary"></path><path d="M0 138.641c0-6.547 5.307-11.854 11.854-11.854 6.547 0 11.854 5.307 11.854 11.854 0 6.547-5.307 11.854-11.854 11.854-6.547 0-11.854-5.307-11.854-11.854z" fill="#ffffff" data-fill-palette-color="primary"></path><path d="M254.562 138.641c0-6.547 5.307-11.854 11.854-11.854 6.547 0 11.854 5.307 11.854 11.854 0 6.547-5.307 11.854-11.854 11.854-6.547 0-11.854-5.307-11.854-11.854z" fill="#ffffff" data-fill-palette-color="primary"></path></g><g id="text-1"></g></svg></g><g transform="matrix(1,0,0,1,53.1494936,298.9726)"><svg viewBox="0 0 171.97061280000003 25.17725685795657" height="25.17725685795657" width="171.97061280000003"><g transform="matrix(1,0,0,1,0,0)"><svg width="171.97061280000003" viewBox="3.98 -39.5 274.28999999999996 40.16" height="25.17725685795657" data-palette-color="#a0754b"><path d="M13.67-13.13L13.67 0 3.98 0 3.98-35.16 22.97-35.16Q25.44-35.16 27.7-34.5 29.96-33.84 31.69-32.51 33.42-31.18 34.46-29.16 35.5-27.15 35.5-24.44L35.5-24.44Q35.5-22.73 35.01-21.23 34.52-19.73 33.65-18.48 32.79-17.24 31.62-16.24 30.44-15.23 29.05-14.55 27.66-13.87 26.11-13.5 24.56-13.13 22.97-13.13L22.97-13.13 13.67-13.13ZM25.68-24.44L25.68-24.44Q25.68-27.83 23.96-29.77 22.24-31.71 18.77-31.71L18.77-31.71 13.67-31.71 13.67-16.46 18.77-16.46Q20.63-16.46 21.94-17.05 23.24-17.65 24.07-18.73 24.9-19.8 25.29-21.25 25.68-22.71 25.68-24.44ZM46.21-13.38L46.21-13.38Q47.73-13.04 49.24-12.84 50.75-12.65 52.29-12.65L52.29-12.65Q53.9-12.65 55.28-12.95 56.66-13.26 57.68-13.98 58.69-14.7 59.27-15.89 59.86-17.09 59.86-18.87L59.86-18.87Q59.86-20.31 59.47-21.51 59.08-22.71 58.31-23.56 57.54-24.41 56.42-24.89 55.3-25.37 53.81-25.37L53.81-25.37Q52.41-25.37 51.3-24.85 50.19-24.34 49.35-23.47 48.51-22.61 47.91-21.46 47.31-20.31 46.92-19.07 46.53-17.82 46.36-16.55 46.19-15.28 46.19-14.16L46.19-14.16Q46.19-13.96 46.19-13.77 46.19-13.57 46.21-13.38ZM66.55-18.95L66.55-18.95Q66.55-17.21 65.99-15.86 65.43-14.5 64.46-13.48 63.5-12.45 62.23-11.74 60.96-11.04 59.52-10.58 58.08-10.13 56.55-9.94 55.03-9.74 53.59-9.74L53.59-9.74Q51.76-9.74 49.97-10 48.19-10.25 46.46-10.82L46.46-10.82Q46.73-9.2 47.31-7.75 47.9-6.3 48.87-5.21 49.85-4.13 51.28-3.49 52.71-2.86 54.66-2.86L54.66-2.86Q55.95-2.86 57.13-3.25 58.3-3.64 59.27-4.35 60.25-5.05 61-6.03 61.74-7.01 62.2-8.2L62.2-8.2 65.77-6.88Q64.96-4.96 63.56-3.55 62.16-2.15 60.39-1.23 58.62-0.32 56.63 0.12 54.64 0.56 52.68 0.56L52.68 0.56Q49.46 0.56 46.73-0.52 43.99-1.61 42.01-3.56 40.04-5.52 38.91-8.23 37.79-10.94 37.79-14.16L37.79-14.16Q37.79-17.38 38.91-20.09 40.04-22.8 42.01-24.76 43.99-26.71 46.73-27.8 49.46-28.88 52.68-28.88L52.68-28.88Q54.25-28.88 55.88-28.66 57.52-28.44 59.06-27.97 60.59-27.49 61.96-26.73 63.33-25.98 64.34-24.87 65.35-23.75 65.95-22.29 66.55-20.83 66.55-18.95ZM100.12-38.57L100.12 0 96.94 0 93.28-6.13Q92.74-4.59 91.8-3.34 90.86-2.1 89.63-1.21 88.4-0.32 86.92 0.17 85.44 0.66 83.81 0.66L83.81 0.66Q80.59 0.66 78.05-0.49 75.51-1.64 73.75-3.63 71.99-5.62 71.06-8.3 70.14-10.99 70.14-14.06L70.14-14.06Q70.14-17.14 71.06-19.82 71.99-22.51 73.75-24.49 75.51-26.46 78.05-27.61 80.59-28.76 83.81-28.76L83.81-28.76Q86.27-28.76 88.34-27.81 90.4-26.86 91.87-24.83L91.87-24.83 91.87-38.57 100.12-38.57ZM91.82-14.06L91.82-14.06Q91.82-15.04 91.67-16.21 91.52-17.38 91.21-18.58 90.89-19.78 90.38-20.9 89.86-22.02 89.12-22.9 88.37-23.78 87.39-24.3 86.4-24.83 85.13-24.83L85.13-24.83Q83.74-24.83 82.71-24.33 81.68-23.83 80.95-22.99 80.22-22.14 79.74-21.04 79.27-19.95 79-18.75 78.73-17.55 78.62-16.35 78.51-15.14 78.51-14.06L78.51-14.06Q78.51-12.99 78.62-11.78 78.73-10.57 79-9.38 79.27-8.18 79.74-7.07 80.22-5.96 80.95-5.11 81.68-4.27 82.71-3.77 83.74-3.27 85.13-3.27L85.13-3.27Q86.52-3.27 87.57-3.76 88.62-4.25 89.36-5.09 90.11-5.93 90.58-7.02 91.06-8.11 91.33-9.31 91.6-10.52 91.71-11.74 91.82-12.96 91.82-14.06ZM115.67-35.01L115.67-35.01Q115.67-34.08 115.31-33.25 114.96-32.42 114.35-31.81 113.74-31.2 112.91-30.85 112.08-30.49 111.15-30.49L111.15-30.49Q110.22-30.49 109.4-30.85 108.59-31.2 107.98-31.81 107.37-32.42 107.01-33.25 106.66-34.08 106.66-35.01L106.66-35.01Q106.66-35.94 107.01-36.76 107.37-37.57 107.98-38.18 108.59-38.79 109.4-39.15 110.22-39.5 111.15-39.5L111.15-39.5Q112.08-39.5 112.91-39.15 113.74-38.79 114.35-38.18 114.96-37.57 115.31-36.76 115.67-35.94 115.67-35.01ZM115.3-28.17L115.3 0 107.02 0 107.02-28.17 115.3-28.17ZM150.6-28.2L150.6 0 142.35 0 142.35-3.37Q140.88-1.37 138.82-0.4 136.76 0.56 134.29 0.56L134.29 0.56Q131.07 0.56 128.53-0.59 125.99-1.73 124.23-3.72 122.48-5.71 121.55-8.4 120.62-11.08 120.62-14.16L120.62-14.16Q120.62-17.24 121.55-19.92 122.48-22.61 124.23-24.6 125.99-26.59 128.53-27.73 131.07-28.88 134.29-28.88L134.29-28.88Q135.93-28.88 137.4-28.39 138.88-27.91 140.11-27.01 141.35-26.12 142.29-24.87 143.23-23.61 143.76-22.07L143.76-22.07 147.43-28.2 150.6-28.2ZM142.3-14.16L142.3-14.16Q142.3-15.26 142.19-16.48 142.08-17.7 141.81-18.9 141.54-20.09 141.07-21.18 140.59-22.27 139.85-23.11 139.1-23.95 138.05-24.44 137-24.93 135.61-24.93L135.61-24.93Q134.22-24.93 133.19-24.43 132.17-23.93 131.44-23.08 130.7-22.24 130.23-21.14 129.75-20.04 129.48-18.85 129.21-17.65 129.1-16.44 128.99-15.23 128.99-14.16L128.99-14.16Q128.99-13.09 129.1-11.87 129.21-10.64 129.48-9.45 129.75-8.25 130.23-7.15 130.7-6.05 131.44-5.21 132.17-4.37 133.19-3.87 134.22-3.37 135.61-3.37L135.61-3.37Q136.88-3.37 137.87-3.89 138.86-4.42 139.6-5.3 140.35-6.18 140.86-7.3 141.37-8.42 141.69-9.62 142.01-10.82 142.15-12 142.3-13.18 142.3-14.16ZM168.1-24.93L168.1 0 159.83 0 159.83-24.93 154.7-24.93 154.7-28.2 159.83-28.2 159.83-38.57 168.1-38.57 168.1-28.2 176.65-28.2 176.65-24.93 168.1-24.93ZM204.45-25.71L204.45-25.71 199.81-18.02Q199.52-18.99 199.06-20.21 198.59-21.44 197.91-22.5 197.23-23.56 196.27-24.28 195.32-25 194.08-25L194.08-25Q192.93-25 192.09-24.41 191.24-23.83 190.66-22.89 190.07-21.95 189.69-20.76 189.32-19.58 189.11-18.37 188.9-17.16 188.83-16.05 188.75-14.94 188.75-14.14L188.75-14.14 188.75 0 180.48 0 180.48-28.2 183.65-28.2 187-21.63Q187.68-23.22 188.56-24.55 189.44-25.88 190.59-26.84 191.73-27.81 193.19-28.34 194.64-28.88 196.47-28.88L196.47-28.88Q197.42-28.88 198.59-28.72 199.77-28.56 200.89-28.19 202.01-27.81 202.96-27.2 203.92-26.59 204.45-25.71ZM216.56-35.01L216.56-35.01Q216.56-34.08 216.21-33.25 215.85-32.42 215.24-31.81 214.63-31.2 213.8-30.85 212.97-30.49 212.04-30.49L212.04-30.49Q211.12-30.49 210.3-30.85 209.48-31.2 208.87-31.81 208.26-32.42 207.9-33.25 207.55-34.08 207.55-35.01L207.55-35.01Q207.55-35.94 207.9-36.76 208.26-37.57 208.87-38.18 209.48-38.79 210.3-39.15 211.12-39.5 212.04-39.5L212.04-39.5Q212.97-39.5 213.8-39.15 214.63-38.79 215.24-38.18 215.85-37.57 216.21-36.76 216.56-35.94 216.56-35.01ZM216.19-28.17L216.19 0 207.92 0 207.92-28.17 216.19-28.17ZM249.13-21.22L249.13-21.22 245.56-19.8Q244.71-22.49 242.7-23.93 240.7-25.37 237.9-25.37L237.9-25.37Q236.38-25.37 235.2-24.89 234.01-24.41 233.12-23.58 232.23-22.75 231.61-21.66 230.99-20.56 230.6-19.31 230.2-18.07 230.03-16.74 229.86-15.41 229.86-14.16L229.86-14.16Q229.86-12.82 230.01-11.45 230.16-10.08 230.51-8.83 230.86-7.57 231.45-6.48 232.04-5.4 232.93-4.59 233.82-3.78 235.05-3.32 236.28-2.86 237.9-2.86L237.9-2.86Q239.19-2.86 240.36-3.25 241.53-3.64 242.51-4.35 243.49-5.05 244.24-6.03 245-7.01 245.44-8.2L245.44-8.2 249.03-6.88Q248.22-4.96 246.89-3.55 245.56-2.15 243.88-1.23 242.19-0.32 240.26 0.12 238.33 0.56 236.36 0.56L236.36 0.56Q233.16 0.56 230.42-0.52 227.69-1.61 225.7-3.58 223.71-5.54 222.59-8.24 221.46-10.94 221.46-14.16L221.46-14.16Q221.46-17.41 222.58-20.12 223.69-22.83 225.66-24.78 227.64-26.73 230.38-27.81 233.11-28.88 236.36-28.88L236.36-28.88Q238.41-28.88 240.36-28.43 242.31-27.98 243.99-27.04 245.66-26.1 246.99-24.66 248.32-23.22 249.13-21.22ZM278.27-9.01L278.27-9.01Q278.27-7.15 277.74-5.71 277.2-4.27 276.27-3.21 275.34-2.15 274.07-1.43 272.8-0.71 271.35-0.27 269.9 0.17 268.31 0.37 266.73 0.56 265.16 0.56L265.16 0.56Q263.06 0.56 261.45 0.29 259.84 0.02 258.38-0.57 256.91-1.17 255.46-2.12 254.01-3.08 252.22-4.44L252.22-4.44 257.03-8.37Q257.69-7.13 258.78-6.12 259.87-5.1 261.04-4.37 262.21-3.64 263.31-3.25 264.41-2.86 265.09-2.86L265.09-2.86Q265.65-2.86 266.36-2.89 267.07-2.93 267.8-3.04 268.53-3.15 269.24-3.37 269.95-3.59 270.5-3.97 271.05-4.35 271.38-4.92 271.71-5.49 271.71-6.3L271.71-6.3Q271.71-7.13 271.28-7.75 270.85-8.37 270.17-8.84 269.48-9.3 268.61-9.62 267.73-9.94 266.84-10.18 265.94-10.42 265.11-10.61 264.28-10.79 263.67-10.96L263.67-10.96Q262.55-11.28 261.31-11.61 260.06-11.94 258.84-12.37 257.62-12.79 256.51-13.38 255.4-13.96 254.56-14.78 253.71-15.6 253.21-16.71 252.71-17.82 252.71-19.31L252.71-19.31Q252.71-22.05 253.8-23.89 254.88-25.73 256.67-26.84 258.45-27.95 260.72-28.42 262.99-28.88 265.33-28.88L265.33-28.88Q266.95-28.88 268.73-28.55 270.51-28.22 272.19-27.58 273.88-26.93 275.34-26 276.81-25.07 277.79-23.88L277.79-23.88 272.98-19.92Q272.44-21.39 271.57-22.44 270.71-23.49 269.69-24.16 268.68-24.83 267.62-25.15 266.55-25.46 265.65-25.46L265.65-25.46Q264.77-25.46 263.67-25.39 262.58-25.32 261.61-24.98 260.65-24.63 259.98-23.94 259.3-23.24 259.3-22.02L259.3-22.02Q259.3-21.14 259.71-20.52 260.11-19.9 260.77-19.45 261.43-18.99 262.27-18.69 263.11-18.38 263.99-18.15 264.87-17.92 265.7-17.75 266.53-17.58 267.19-17.38L267.19-17.38Q268.31-17.07 269.57-16.74 270.83-16.41 272.05-15.98 273.27-15.55 274.4-14.98 275.54-14.4 276.39-13.57 277.25-12.74 277.76-11.63 278.27-10.52 278.27-9.01Z" opacity="1" transform="matrix(1,0,0,1,0,0)" fill="#ffffff" class="slogan-text-1" data-fill-palette-color="secondary" id="text-1"></path></svg></g></svg></g></svg></g></svg></g></svg></g><defs></defs></svg><rect width="240.36872561120026" height="280" fill="none" stroke="none" visibility="hidden"></rect></g></svg></g></svg>