<svg xmlns="http://www.w3.org/2000/svg" version="1.1" xmlns:xlink="http://www.w3.org/1999/xlink" xmlns:svgjs="http://svgjs.dev/svgjs" width="2000" height="464" viewBox="0 0 2000 464"><g transform="matrix(1,0,0,1,-1.2121212121212466,-1.164930709926665)"><svg viewBox="0 0 396 92" data-background-color="#ffffff" preserveAspectRatio="xMidYMid meet" height="464" width="2000" xmlns="http://www.w3.org/2000/svg" xmlns:xlink="http://www.w3.org/1999/xlink"><g id="tight-bounds" transform="matrix(1,0,0,1,0.2400000000000091,0.2309776407613242)"><svg viewBox="0 0 395.52 91.53804471847734" height="91.53804471847734" width="395.52"><g><svg viewBox="0 0 469.87822573856255 108.7473049147839" height="91.53804471847734" width="395.52"><g transform="matrix(1,0,0,1,74.35822573856257,9.150460633621684)"><svg viewBox="0 0 395.52 90.44638364754053" height="90.44638364754053" width="395.52"><g id="textblocktransform"><svg viewBox="0 0 395.52 90.44638364754053" height="90.44638364754053" width="395.52" id="textblock"><g><svg viewBox="0 0 395.52 48.78245748693178" height="48.78245748693178" width="395.52"><g transform="matrix(1,0,0,1,0,0)"><svg width="395.52" viewBox="3.98 -39.5 368.94 45.51" height="48.78245748693178" data-palette-color="#e9b585"><path d="M29.22-4.47L29.22 0 3.98 0 3.98-35.16 13.67-35.16 13.67-4.47 29.22-4.47ZM61.86-14.16L61.86-14.16Q61.86-11.96 61.28-10.03 60.69-8.11 59.65-6.47 58.62-4.83 57.15-3.53 55.69-2.22 53.94-1.32 52.19-0.42 50.21 0.07 48.22 0.56 46.12 0.56L46.12 0.56Q44.02 0.56 42.04 0.07 40.06-0.42 38.32-1.32 36.57-2.22 35.1-3.53 33.64-4.83 32.6-6.47 31.56-8.11 30.98-10.05 30.39-11.99 30.39-14.16L30.39-14.16Q30.39-16.33 30.98-18.27 31.56-20.21 32.6-21.85 33.64-23.49 35.1-24.79 36.57-26.1 38.32-27 40.06-27.91 42.04-28.39 44.02-28.88 46.12-28.88L46.12-28.88Q48.22-28.88 50.21-28.39 52.19-27.91 53.94-27 55.69-26.1 57.15-24.79 58.62-23.49 59.65-21.85 60.69-20.21 61.28-18.27 61.86-16.33 61.86-14.16ZM53.46-14.16L53.46-14.16Q53.46-15.33 53.33-16.64 53.2-17.94 52.88-19.2 52.56-20.46 52.01-21.62 51.46-22.78 50.66-23.65 49.85-24.51 48.73-25.04 47.6-25.56 46.12-25.56L46.12-25.56Q44.7-25.56 43.6-25.02 42.5-24.49 41.68-23.6 40.87-22.71 40.32-21.53 39.77-20.36 39.43-19.1 39.08-17.85 38.94-16.56 38.79-15.28 38.79-14.16L38.79-14.16Q38.79-13.04 38.94-11.76 39.08-10.47 39.43-9.2 39.77-7.93 40.32-6.77 40.87-5.62 41.68-4.72 42.5-3.83 43.6-3.3 44.7-2.76 46.12-2.76L46.12-2.76Q47.58-2.76 48.7-3.28 49.83-3.81 50.64-4.69 51.46-5.57 52-6.71 52.54-7.86 52.87-9.13 53.2-10.4 53.33-11.69 53.46-12.99 53.46-14.16ZM95.89-16.16L95.89-16.16Q95.89-13.31 95.2-10.21 94.5-7.1 93.26-4.13 92.01-1.15 90.28 1.48 88.54 4.1 86.47 6.01L86.47 6.01 83.37 4.32Q84.03 3.1 84.61 1.59 85.2 0.07 85.68-1.62 86.15-3.32 86.53-5.13 86.91-6.93 87.17-8.7 87.42-10.47 87.56-12.15 87.69-13.82 87.69-15.26L87.69-15.26Q87.69-16.21 87.62-17.3 87.54-18.38 87.31-19.47 87.08-20.56 86.69-21.56 86.3-22.56 85.65-23.32 85-24.07 84.09-24.54 83.17-25 81.93-25L81.93-25Q80.71-25 79.76-24.45 78.8-23.9 78.07-23.01 77.34-22.12 76.81-20.97 76.29-19.82 75.96-18.62 75.63-17.41 75.48-16.24 75.34-15.06 75.34-14.14L75.34-14.14 75.34 0 67.06 0 67.06-28.2 70.23-28.2 74.02-21.63Q74.7-23.27 75.73-24.61 76.75-25.95 78.05-26.9 79.34-27.86 80.92-28.37 82.49-28.88 84.32-28.88L84.32-28.88Q87.25-28.88 89.42-27.93 91.6-26.98 93.04-25.28 94.48-23.58 95.19-21.25 95.89-18.92 95.89-16.16ZM108.12-13.38L108.12-13.38Q109.64-13.04 111.15-12.84 112.66-12.65 114.2-12.65L114.2-12.65Q115.81-12.65 117.19-12.95 118.57-13.26 119.58-13.98 120.6-14.7 121.18-15.89 121.77-17.09 121.77-18.87L121.77-18.87Q121.77-20.31 121.38-21.51 120.99-22.71 120.22-23.56 119.45-24.41 118.33-24.89 117.2-25.37 115.72-25.37L115.72-25.37Q114.32-25.37 113.21-24.85 112.1-24.34 111.26-23.47 110.42-22.61 109.82-21.46 109.22-20.31 108.83-19.07 108.44-17.82 108.27-16.55 108.1-15.28 108.1-14.16L108.1-14.16Q108.1-13.96 108.1-13.77 108.1-13.57 108.12-13.38ZM128.46-18.95L128.46-18.95Q128.46-17.21 127.9-15.86 127.34-14.5 126.37-13.48 125.41-12.45 124.14-11.74 122.87-11.04 121.43-10.58 119.99-10.13 118.46-9.94 116.94-9.74 115.5-9.74L115.5-9.74Q113.66-9.74 111.88-10 110.1-10.25 108.37-10.82L108.37-10.82Q108.64-9.2 109.22-7.75 109.81-6.3 110.78-5.21 111.76-4.13 113.19-3.49 114.62-2.86 116.57-2.86L116.57-2.86Q117.86-2.86 119.04-3.25 120.21-3.64 121.18-4.35 122.16-5.05 122.91-6.03 123.65-7.01 124.11-8.2L124.11-8.2 127.68-6.88Q126.87-4.96 125.47-3.55 124.06-2.15 122.29-1.23 120.52-0.32 118.53 0.12 116.55 0.56 114.59 0.56L114.59 0.56Q111.37 0.56 108.64-0.52 105.9-1.61 103.92-3.56 101.95-5.52 100.82-8.23 99.7-10.94 99.7-14.16L99.7-14.16Q99.7-17.38 100.82-20.09 101.95-22.8 103.92-24.76 105.9-26.71 108.64-27.8 111.37-28.88 114.59-28.88L114.59-28.88Q116.15-28.88 117.79-28.66 119.43-28.44 120.96-27.97 122.5-27.49 123.87-26.73 125.24-25.98 126.25-24.87 127.26-23.75 127.86-22.29 128.46-20.83 128.46-18.95ZM157.88-9.01L157.88-9.01Q157.88-7.15 157.34-5.71 156.8-4.27 155.87-3.21 154.95-2.15 153.68-1.43 152.41-0.71 150.95-0.27 149.5 0.17 147.91 0.37 146.33 0.56 144.77 0.56L144.77 0.56Q142.67 0.56 141.05 0.29 139.44 0.02 137.98-0.57 136.51-1.17 135.06-2.12 133.61-3.08 131.83-4.44L131.83-4.44 136.64-8.37Q137.29-7.13 138.38-6.12 139.47-5.1 140.64-4.37 141.81-3.64 142.91-3.25 144.01-2.86 144.69-2.86L144.69-2.86Q145.25-2.86 145.96-2.89 146.67-2.93 147.4-3.04 148.13-3.15 148.84-3.37 149.55-3.59 150.1-3.97 150.65-4.35 150.98-4.92 151.31-5.49 151.31-6.3L151.31-6.3Q151.31-7.13 150.88-7.75 150.45-8.37 149.77-8.84 149.09-9.3 148.21-9.62 147.33-9.94 146.44-10.18 145.55-10.42 144.72-10.61 143.89-10.79 143.28-10.96L143.28-10.96Q142.15-11.28 140.91-11.61 139.66-11.94 138.44-12.37 137.22-12.79 136.11-13.38 135-13.96 134.16-14.78 133.32-15.6 132.81-16.71 132.31-17.82 132.31-19.31L132.31-19.31Q132.31-22.05 133.4-23.89 134.49-25.73 136.27-26.84 138.05-27.95 140.32-28.42 142.59-28.88 144.94-28.88L144.94-28.88Q146.55-28.88 148.33-28.55 150.11-28.22 151.8-27.58 153.48-26.93 154.95-26 156.41-25.07 157.39-23.88L157.39-23.88 152.58-19.92Q152.04-21.39 151.17-22.44 150.31-23.49 149.29-24.16 148.28-24.83 147.22-25.15 146.16-25.46 145.25-25.46L145.25-25.46Q144.37-25.46 143.28-25.39 142.18-25.32 141.21-24.98 140.25-24.63 139.58-23.94 138.91-23.24 138.91-22.02L138.91-22.02Q138.91-21.14 139.31-20.52 139.71-19.9 140.37-19.45 141.03-18.99 141.87-18.69 142.71-18.38 143.59-18.15 144.47-17.92 145.3-17.75 146.13-17.58 146.79-17.38L146.79-17.38Q147.91-17.07 149.17-16.74 150.43-16.41 151.65-15.98 152.87-15.55 154.01-14.98 155.14-14.4 156-13.57 156.85-12.74 157.36-11.63 157.88-10.52 157.88-9.01ZM173.69-24.93L173.69 0 165.42 0 165.42-24.93 160.29-24.93 160.29-28.2 165.42-28.2 165.42-38.57 173.69-38.57 173.69-28.2 182.24-28.2 182.24-24.93 173.69-24.93ZM213.56-28.2L213.56 0 205.31 0 205.31-3.37Q203.84-1.37 201.78-0.4 199.72 0.56 197.25 0.56L197.25 0.56Q194.03 0.56 191.49-0.59 188.95-1.73 187.19-3.72 185.43-5.71 184.51-8.4 183.58-11.08 183.58-14.16L183.58-14.16Q183.58-17.24 184.51-19.92 185.43-22.61 187.19-24.6 188.95-26.59 191.49-27.73 194.03-28.88 197.25-28.88L197.25-28.88Q198.89-28.88 200.36-28.39 201.84-27.91 203.07-27.01 204.31-26.12 205.25-24.87 206.19-23.61 206.72-22.07L206.72-22.07 210.39-28.2 213.56-28.2ZM205.26-14.16L205.26-14.16Q205.26-15.26 205.15-16.48 205.04-17.7 204.77-18.9 204.5-20.09 204.03-21.18 203.55-22.27 202.8-23.11 202.06-23.95 201.01-24.44 199.96-24.93 198.57-24.93L198.57-24.93Q197.18-24.93 196.15-24.43 195.13-23.93 194.39-23.08 193.66-22.24 193.19-21.14 192.71-20.04 192.44-18.85 192.17-17.65 192.06-16.44 191.95-15.23 191.95-14.16L191.95-14.16Q191.95-13.09 192.06-11.87 192.17-10.64 192.44-9.45 192.71-8.25 193.19-7.15 193.66-6.05 194.39-5.21 195.13-4.37 196.15-3.87 197.18-3.37 198.57-3.37L198.57-3.37Q199.84-3.37 200.83-3.89 201.82-4.42 202.56-5.3 203.31-6.18 203.82-7.3 204.33-8.42 204.65-9.62 204.97-10.82 205.11-12 205.26-13.18 205.26-14.16ZM244.42-25.71L244.42-25.71 239.78-18.02Q239.48-18.99 239.02-20.21 238.56-21.44 237.87-22.5 237.19-23.56 236.24-24.28 235.29-25 234.04-25L234.04-25Q232.89-25 232.05-24.41 231.21-23.83 230.62-22.89 230.04-21.95 229.66-20.76 229.28-19.58 229.07-18.37 228.86-17.16 228.79-16.05 228.72-14.94 228.72-14.14L228.72-14.14 228.72 0 220.44 0 220.44-28.2 223.62-28.2 226.96-21.63Q227.64-23.22 228.52-24.55 229.4-25.88 230.55-26.84 231.7-27.81 233.15-28.34 234.6-28.88 236.43-28.88L236.43-28.88Q237.38-28.88 238.56-28.72 239.73-28.56 240.85-28.19 241.97-27.81 242.93-27.2 243.88-26.59 244.42-25.71ZM272.24-13.75L272.24 0 262.55 0 262.55-35.16 272.24-35.16 272.24-18.41Q276.74-21.85 280.63-26.05 284.52-30.25 287.33-35.18L287.33-35.18 293.95-35.18Q291.36-30.76 288.01-26.93 284.67-23.1 280.74-19.82L280.74-19.82 294.78 0 284.67 0 274.1-14.94Q273.63-14.62 273.18-14.33 272.73-14.04 272.24-13.75L272.24-13.75ZM306.81-35.01L306.81-35.01Q306.81-34.08 306.46-33.25 306.1-32.42 305.49-31.81 304.88-31.2 304.05-30.85 303.22-30.49 302.29-30.49L302.29-30.49Q301.37-30.49 300.55-30.85 299.73-31.2 299.12-31.81 298.51-32.42 298.16-33.25 297.8-34.08 297.8-35.01L297.8-35.01Q297.8-35.94 298.16-36.76 298.51-37.57 299.12-38.18 299.73-38.79 300.55-39.15 301.37-39.5 302.29-39.5L302.29-39.5Q303.22-39.5 304.05-39.15 304.88-38.79 305.49-38.18 306.1-37.57 306.46-36.76 306.81-35.94 306.81-35.01ZM306.44-28.17L306.44 0 298.17 0 298.17-28.17 306.44-28.17ZM341.77-38.57L341.77 0 338.6 0 334.93-6.13Q334.4-4.59 333.46-3.34 332.52-2.1 331.28-1.21 330.05-0.32 328.57 0.17 327.1 0.66 325.46 0.66L325.46 0.66Q322.24 0.66 319.7-0.49 317.16-1.64 315.4-3.63 313.64-5.62 312.72-8.3 311.79-10.99 311.79-14.06L311.79-14.06Q311.79-17.14 312.72-19.82 313.64-22.51 315.4-24.49 317.16-26.46 319.7-27.61 322.24-28.76 325.46-28.76L325.46-28.76Q327.93-28.76 329.99-27.81 332.05-26.86 333.52-24.83L333.52-24.83 333.52-38.57 341.77-38.57ZM333.47-14.06L333.47-14.06Q333.47-15.04 333.32-16.21 333.18-17.38 332.86-18.58 332.54-19.78 332.03-20.9 331.52-22.02 330.77-22.9 330.03-23.78 329.04-24.3 328.05-24.83 326.78-24.83L326.78-24.83Q325.39-24.83 324.36-24.33 323.34-23.83 322.6-22.99 321.87-22.14 321.4-21.04 320.92-19.95 320.65-18.75 320.38-17.55 320.27-16.35 320.16-15.14 320.16-14.06L320.16-14.06Q320.16-12.99 320.27-11.78 320.38-10.57 320.65-9.38 320.92-8.18 321.4-7.07 321.87-5.96 322.6-5.11 323.34-4.27 324.36-3.77 325.39-3.27 326.78-3.27L326.78-3.27Q328.17-3.27 329.22-3.76 330.27-4.25 331.01-5.09 331.76-5.93 332.24-7.02 332.71-8.11 332.98-9.31 333.25-10.52 333.36-11.74 333.47-12.96 333.47-14.06ZM372.92-9.01L372.92-9.01Q372.92-7.15 372.38-5.71 371.85-4.27 370.92-3.21 369.99-2.15 368.72-1.43 367.45-0.71 366-0.27 364.55 0.17 362.96 0.37 361.37 0.56 359.81 0.56L359.81 0.56Q357.71 0.56 356.1 0.29 354.49 0.02 353.02-0.57 351.56-1.17 350.1-2.12 348.65-3.08 346.87-4.44L346.87-4.44 351.68-8.37Q352.34-7.13 353.42-6.12 354.51-5.1 355.68-4.37 356.85-3.64 357.95-3.25 359.05-2.86 359.74-2.86L359.74-2.86Q360.3-2.86 361.01-2.89 361.71-2.93 362.45-3.04 363.18-3.15 363.89-3.37 364.59-3.59 365.14-3.97 365.69-4.35 366.02-4.92 366.35-5.49 366.35-6.3L366.35-6.3Q366.35-7.13 365.92-7.75 365.5-8.37 364.81-8.84 364.13-9.3 363.25-9.62 362.37-9.94 361.48-10.18 360.59-10.42 359.76-10.61 358.93-10.79 358.32-10.96L358.32-10.96Q357.2-11.28 355.95-11.61 354.71-11.94 353.49-12.37 352.26-12.79 351.15-13.38 350.04-13.96 349.2-14.78 348.36-15.6 347.86-16.71 347.36-17.82 347.36-19.31L347.36-19.31Q347.36-22.05 348.44-23.89 349.53-25.73 351.31-26.84 353.1-27.95 355.37-28.42 357.64-28.88 359.98-28.88L359.98-28.88Q361.59-28.88 363.37-28.55 365.16-28.22 366.84-27.58 368.52-26.93 369.99-26 371.45-25.07 372.43-23.88L372.43-23.88 367.62-19.92Q367.08-21.39 366.22-22.44 365.35-23.49 364.34-24.16 363.32-24.83 362.26-25.15 361.2-25.46 360.3-25.46L360.3-25.46Q359.42-25.46 358.32-25.39 357.22-25.32 356.26-24.98 355.29-24.63 354.62-23.94 353.95-23.24 353.95-22.02L353.95-22.02Q353.95-21.14 354.35-20.52 354.76-19.9 355.41-19.45 356.07-18.99 356.92-18.69 357.76-18.38 358.64-18.15 359.52-17.92 360.35-17.75 361.18-17.58 361.84-17.38L361.84-17.38Q362.96-17.07 364.22-16.74 365.47-16.41 366.69-15.98 367.91-15.55 369.05-14.98 370.18-14.4 371.04-13.57 371.89-12.74 372.41-11.63 372.92-10.52 372.92-9.01Z" opacity="1" transform="matrix(1,0,0,1,0,0)" fill="#e9b585" class="wordmark-text-0" data-fill-palette-color="primary" id="text-0"></path></svg></g></svg></g><g transform="matrix(1,0,0,1,0,60.29882492061669)"><svg viewBox="0 0 205.91973851411325 30.14755872692384" height="30.14755872692384" width="205.91973851411325"><g transform="matrix(1,0,0,1,0,0)"><svg width="205.91973851411325" viewBox="3.98 -39.5 274.28999999999996 40.16" height="30.14755872692384" data-palette-color="#a0754b"><path d="M13.67-13.13L13.67 0 3.98 0 3.98-35.16 22.97-35.16Q25.44-35.16 27.7-34.5 29.96-33.84 31.69-32.51 33.42-31.18 34.46-29.16 35.5-27.15 35.5-24.44L35.5-24.44Q35.5-22.73 35.01-21.23 34.52-19.73 33.65-18.48 32.79-17.24 31.62-16.24 30.44-15.23 29.05-14.55 27.66-13.87 26.11-13.5 24.56-13.13 22.97-13.13L22.97-13.13 13.67-13.13ZM25.68-24.44L25.68-24.44Q25.68-27.83 23.96-29.77 22.24-31.71 18.77-31.71L18.77-31.71 13.67-31.71 13.67-16.46 18.77-16.46Q20.63-16.46 21.94-17.05 23.24-17.65 24.07-18.73 24.9-19.8 25.29-21.25 25.68-22.71 25.68-24.44ZM46.21-13.38L46.21-13.38Q47.73-13.04 49.24-12.84 50.75-12.65 52.29-12.65L52.29-12.65Q53.9-12.65 55.28-12.95 56.66-13.26 57.68-13.98 58.69-14.7 59.27-15.89 59.86-17.09 59.86-18.87L59.86-18.87Q59.86-20.31 59.47-21.51 59.08-22.71 58.31-23.56 57.54-24.41 56.42-24.89 55.3-25.37 53.81-25.37L53.81-25.37Q52.41-25.37 51.3-24.85 50.19-24.34 49.35-23.47 48.51-22.61 47.91-21.46 47.31-20.31 46.92-19.07 46.53-17.82 46.36-16.55 46.19-15.28 46.19-14.16L46.19-14.16Q46.19-13.96 46.19-13.77 46.19-13.57 46.21-13.38ZM66.55-18.95L66.55-18.95Q66.55-17.21 65.99-15.86 65.43-14.5 64.46-13.48 63.5-12.45 62.23-11.74 60.96-11.04 59.52-10.58 58.08-10.13 56.55-9.94 55.03-9.74 53.59-9.74L53.59-9.74Q51.76-9.74 49.97-10 48.19-10.25 46.46-10.82L46.46-10.82Q46.73-9.2 47.31-7.75 47.9-6.3 48.87-5.21 49.85-4.13 51.28-3.49 52.71-2.86 54.66-2.86L54.66-2.86Q55.95-2.86 57.13-3.25 58.3-3.64 59.27-4.35 60.25-5.05 61-6.03 61.74-7.01 62.2-8.2L62.2-8.2 65.77-6.88Q64.96-4.96 63.56-3.55 62.16-2.15 60.39-1.23 58.62-0.32 56.63 0.12 54.64 0.56 52.68 0.56L52.68 0.56Q49.46 0.56 46.73-0.52 43.99-1.61 42.01-3.56 40.04-5.52 38.91-8.23 37.79-10.94 37.79-14.16L37.79-14.16Q37.79-17.38 38.91-20.09 40.04-22.8 42.01-24.76 43.99-26.71 46.73-27.8 49.46-28.88 52.68-28.88L52.68-28.88Q54.25-28.88 55.88-28.66 57.52-28.44 59.06-27.97 60.59-27.49 61.96-26.73 63.33-25.98 64.34-24.87 65.35-23.75 65.95-22.29 66.55-20.83 66.55-18.95ZM100.12-38.57L100.12 0 96.94 0 93.28-6.13Q92.74-4.59 91.8-3.34 90.86-2.1 89.63-1.21 88.4-0.32 86.92 0.17 85.44 0.66 83.81 0.66L83.81 0.66Q80.59 0.66 78.05-0.49 75.51-1.64 73.75-3.63 71.99-5.62 71.06-8.3 70.14-10.99 70.14-14.06L70.14-14.06Q70.14-17.14 71.06-19.82 71.99-22.51 73.75-24.49 75.51-26.46 78.05-27.61 80.59-28.76 83.81-28.76L83.81-28.76Q86.27-28.76 88.34-27.81 90.4-26.86 91.87-24.83L91.87-24.83 91.87-38.57 100.12-38.57ZM91.82-14.06L91.82-14.06Q91.82-15.04 91.67-16.21 91.52-17.38 91.21-18.58 90.89-19.78 90.38-20.9 89.86-22.02 89.12-22.9 88.37-23.78 87.39-24.3 86.4-24.83 85.13-24.83L85.13-24.83Q83.74-24.83 82.71-24.33 81.68-23.83 80.95-22.99 80.22-22.14 79.74-21.04 79.27-19.95 79-18.75 78.73-17.55 78.62-16.35 78.51-15.14 78.51-14.06L78.51-14.06Q78.51-12.99 78.62-11.78 78.73-10.57 79-9.38 79.27-8.18 79.74-7.07 80.22-5.96 80.95-5.11 81.68-4.27 82.71-3.77 83.74-3.27 85.13-3.27L85.13-3.27Q86.52-3.27 87.57-3.76 88.62-4.25 89.36-5.09 90.11-5.93 90.58-7.02 91.06-8.11 91.33-9.31 91.6-10.52 91.71-11.74 91.82-12.96 91.82-14.06ZM115.67-35.01L115.67-35.01Q115.67-34.08 115.31-33.25 114.96-32.42 114.35-31.81 113.74-31.2 112.91-30.85 112.08-30.49 111.15-30.49L111.15-30.49Q110.22-30.49 109.4-30.85 108.59-31.2 107.98-31.81 107.37-32.42 107.01-33.25 106.66-34.08 106.66-35.01L106.66-35.01Q106.66-35.94 107.01-36.76 107.37-37.57 107.98-38.18 108.59-38.79 109.4-39.15 110.22-39.5 111.15-39.5L111.15-39.5Q112.08-39.5 112.91-39.15 113.74-38.79 114.35-38.18 114.96-37.57 115.31-36.76 115.67-35.94 115.67-35.01ZM115.3-28.17L115.3 0 107.02 0 107.02-28.17 115.3-28.17ZM150.6-28.2L150.6 0 142.35 0 142.35-3.37Q140.88-1.37 138.82-0.4 136.76 0.56 134.29 0.56L134.29 0.56Q131.07 0.56 128.53-0.59 125.99-1.73 124.23-3.72 122.48-5.71 121.55-8.4 120.62-11.08 120.62-14.16L120.62-14.16Q120.62-17.24 121.55-19.92 122.48-22.61 124.23-24.6 125.99-26.59 128.53-27.73 131.07-28.88 134.29-28.88L134.29-28.88Q135.93-28.88 137.4-28.39 138.88-27.91 140.11-27.01 141.35-26.12 142.29-24.87 143.23-23.61 143.76-22.07L143.76-22.07 147.43-28.2 150.6-28.2ZM142.3-14.16L142.3-14.16Q142.3-15.26 142.19-16.48 142.08-17.7 141.81-18.9 141.54-20.09 141.07-21.18 140.59-22.27 139.85-23.11 139.1-23.95 138.05-24.44 137-24.93 135.61-24.93L135.61-24.93Q134.22-24.93 133.19-24.43 132.17-23.93 131.44-23.08 130.7-22.24 130.23-21.14 129.75-20.04 129.48-18.85 129.21-17.65 129.1-16.44 128.99-15.23 128.99-14.16L128.99-14.16Q128.99-13.09 129.1-11.87 129.21-10.64 129.48-9.45 129.75-8.25 130.23-7.15 130.7-6.05 131.44-5.21 132.17-4.37 133.19-3.87 134.22-3.37 135.61-3.37L135.61-3.37Q136.88-3.37 137.87-3.89 138.86-4.42 139.6-5.3 140.35-6.18 140.86-7.3 141.37-8.42 141.69-9.62 142.01-10.82 142.15-12 142.3-13.18 142.3-14.16ZM168.1-24.93L168.1 0 159.83 0 159.83-24.93 154.7-24.93 154.7-28.2 159.83-28.2 159.83-38.57 168.1-38.57 168.1-28.2 176.65-28.2 176.65-24.93 168.1-24.93ZM204.45-25.71L204.45-25.71 199.81-18.02Q199.52-18.99 199.06-20.21 198.59-21.44 197.91-22.5 197.23-23.56 196.27-24.28 195.32-25 194.08-25L194.08-25Q192.93-25 192.09-24.41 191.24-23.83 190.66-22.89 190.07-21.95 189.69-20.76 189.32-19.58 189.11-18.37 188.9-17.16 188.83-16.05 188.75-14.94 188.75-14.14L188.75-14.14 188.75 0 180.48 0 180.48-28.2 183.65-28.2 187-21.63Q187.68-23.22 188.56-24.55 189.44-25.88 190.59-26.84 191.73-27.81 193.19-28.34 194.64-28.88 196.47-28.88L196.47-28.88Q197.42-28.88 198.59-28.72 199.77-28.56 200.89-28.19 202.01-27.81 202.96-27.2 203.92-26.59 204.45-25.71ZM216.56-35.01L216.56-35.01Q216.56-34.08 216.21-33.25 215.85-32.42 215.24-31.81 214.63-31.2 213.8-30.85 212.97-30.49 212.04-30.49L212.04-30.49Q211.12-30.49 210.3-30.85 209.48-31.2 208.87-31.81 208.26-32.42 207.9-33.25 207.55-34.08 207.55-35.01L207.55-35.01Q207.55-35.94 207.9-36.76 208.26-37.57 208.87-38.18 209.48-38.79 210.3-39.15 211.12-39.5 212.04-39.5L212.04-39.5Q212.97-39.5 213.8-39.15 214.63-38.79 215.24-38.18 215.85-37.57 216.21-36.76 216.56-35.94 216.56-35.01ZM216.19-28.17L216.19 0 207.92 0 207.92-28.17 216.19-28.17ZM249.13-21.22L249.13-21.22 245.56-19.8Q244.71-22.49 242.7-23.93 240.7-25.37 237.9-25.37L237.9-25.37Q236.38-25.37 235.2-24.89 234.01-24.41 233.12-23.58 232.23-22.75 231.61-21.66 230.99-20.56 230.6-19.31 230.2-18.07 230.03-16.74 229.86-15.41 229.86-14.16L229.86-14.16Q229.86-12.82 230.01-11.45 230.16-10.08 230.51-8.83 230.86-7.57 231.45-6.48 232.04-5.4 232.93-4.59 233.82-3.78 235.05-3.32 236.28-2.86 237.9-2.86L237.9-2.86Q239.19-2.86 240.36-3.25 241.53-3.64 242.51-4.35 243.49-5.05 244.24-6.03 245-7.01 245.44-8.2L245.44-8.2 249.03-6.88Q248.22-4.96 246.89-3.55 245.56-2.15 243.88-1.23 242.19-0.32 240.26 0.12 238.33 0.56 236.36 0.56L236.36 0.56Q233.16 0.56 230.42-0.52 227.69-1.61 225.7-3.58 223.71-5.54 222.59-8.24 221.46-10.94 221.46-14.16L221.46-14.16Q221.46-17.41 222.58-20.12 223.69-22.83 225.66-24.78 227.64-26.73 230.38-27.81 233.11-28.88 236.36-28.88L236.36-28.88Q238.41-28.88 240.36-28.43 242.31-27.98 243.99-27.04 245.66-26.1 246.99-24.66 248.32-23.22 249.13-21.22ZM278.27-9.01L278.27-9.01Q278.27-7.15 277.74-5.71 277.2-4.27 276.27-3.21 275.34-2.15 274.07-1.43 272.8-0.71 271.35-0.27 269.9 0.17 268.31 0.37 266.73 0.56 265.16 0.56L265.16 0.56Q263.06 0.56 261.45 0.29 259.84 0.02 258.38-0.57 256.91-1.17 255.46-2.12 254.01-3.08 252.22-4.44L252.22-4.44 257.03-8.37Q257.69-7.13 258.78-6.12 259.87-5.1 261.04-4.37 262.21-3.64 263.31-3.25 264.41-2.86 265.09-2.86L265.09-2.86Q265.65-2.86 266.36-2.89 267.07-2.93 267.8-3.04 268.53-3.15 269.24-3.37 269.95-3.59 270.5-3.97 271.05-4.35 271.38-4.92 271.71-5.49 271.71-6.3L271.71-6.3Q271.71-7.13 271.28-7.75 270.85-8.37 270.17-8.84 269.48-9.3 268.61-9.62 267.73-9.94 266.84-10.18 265.94-10.42 265.11-10.61 264.28-10.79 263.67-10.96L263.67-10.96Q262.55-11.28 261.31-11.61 260.06-11.94 258.84-12.37 257.62-12.79 256.51-13.38 255.4-13.96 254.56-14.78 253.71-15.6 253.21-16.71 252.71-17.82 252.71-19.31L252.71-19.31Q252.71-22.05 253.8-23.89 254.88-25.73 256.67-26.84 258.45-27.95 260.72-28.42 262.99-28.88 265.33-28.88L265.33-28.88Q266.95-28.88 268.73-28.55 270.51-28.22 272.19-27.58 273.88-26.93 275.34-26 276.81-25.07 277.79-23.88L277.79-23.88 272.98-19.92Q272.44-21.39 271.57-22.44 270.71-23.49 269.69-24.16 268.68-24.83 267.62-25.15 266.55-25.46 265.65-25.46L265.65-25.46Q264.77-25.46 263.67-25.39 262.58-25.32 261.61-24.98 260.65-24.63 259.98-23.94 259.3-23.24 259.3-22.02L259.3-22.02Q259.3-21.14 259.71-20.52 260.11-19.9 260.77-19.45 261.43-18.99 262.27-18.69 263.11-18.38 263.99-18.15 264.87-17.92 265.7-17.75 266.53-17.58 267.19-17.38L267.19-17.38Q268.31-17.07 269.57-16.74 270.83-16.41 272.05-15.98 273.27-15.55 274.4-14.98 275.54-14.4 276.39-13.57 277.25-12.74 277.76-11.63 278.27-10.52 278.27-9.01Z" opacity="1" transform="matrix(1,0,0,1,0,0)" fill="#a0754b" class="slogan-text-1" data-fill-palette-color="secondary" id="text-1"></path></svg></g></svg></g></svg></g></svg></g><g><svg viewBox="0 0 62.84185830487766 108.7473049147839" height="108.7473049147839" width="62.84185830487766"><g><svg xmlns="http://www.w3.org/2000/svg" xmlns:xlink="http://www.w3.org/1999/xlink" version="1.1" x="0" y="0" viewBox="13.823227102984392 0.5456683369321071 36.35286840133289 62.908331663067884" enable-background="new 0 0 64 64" xml:space="preserve" height="108.7473049147839" width="62.84185830487766" class="icon-icon-0" data-fill-palette-color="accent" id="icon-0"><g fill="#d4805c" data-fill-palette-color="accent"><path fill="#d4805c" d="M20.643 18.641c2.052 0.541 4.999-0.118 6.796-1.239 0.097 0.077 0.198 0.149 0.3 0.219 0.181 0.123 0.371 0.239 0.57 0.35 0.237 0.12 0.555 0.262 0.967 0.403 0.022 0.009 0.046 0.02 0.068 0.03 0.252 0.107 0.499 0.183 0.755 0.231 0.237 0.045 0.472 0.064 0.708 0.058 0.237 0.005 0.472-0.014 0.716-0.059 0.248-0.047 0.496-0.123 0.747-0.23 0.023-0.009 0.046-0.02 0.069-0.024 0.411-0.146 0.729-0.288 0.967-0.41 0.199-0.11 0.388-0.226 0.57-0.349 0.13-0.088 0.256-0.181 0.377-0.279 2.515 1.241 5.743 1.772 8.354 0.606 0.302-0.135 0.311-0.483 0.065-0.709-0.092-0.085-0.203-0.149-0.304-0.225-0.518-0.387-0.989-0.8-1.411-1.237-1.441-1.494-2.316-3.283-2.593-5.405-0.046-0.352-0.076-0.714-0.088-1.085-0.009-0.277-0.026-0.555-0.047-0.832-0.078-1.008-0.229-2.014-0.395-3.011-0.023-0.143-0.051-0.285-0.087-0.426-0.196-0.843-0.574-1.625-1.234-2.239-2.78-2.584-6.997-2.959-10.218-0.951-1.012 0.63-1.763 1.426-2.209 2.458-0.134 0.31-0.241 0.641-0.318 0.996-0.237 1.077-0.352 2.163-0.434 3.256-0.018 0.226-0.033 0.452-0.047 0.678-0.022 0.319-0.035 0.643-0.061 0.962-0.024 0.298-0.058 0.594-0.119 0.883-0.39 1.866-1.23 3.439-2.487 4.735-0.456 0.471-0.969 0.905-1.533 1.304C17.982 17.878 20.064 18.488 20.643 18.641z" data-fill-palette-color="accent"></path><g fill="#d4805c" data-fill-palette-color="accent"><path fill="#d4805c" d="M49.724 33.541c-0.327-1.091-0.281-2.366-0.115-3.515 0.534-3.67-1.769-7.047-5.175-6.611-2.303 0.293-3.957-0.391-5.818-1.309-0.994-0.488-2.2-0.718-3.32-0.747-0.247-0.006-0.494-0.011-0.735-0.017-3.285 2.027-5.818 1.097-7.415-0.023-0.632 0-1.258 0-1.884-0.011-2.849-0.029-5.146 1.12-6.381 3.607-1.775 3.572-3.452 7.225-4.704 11.004-1.005 3.038 0.167 5.904 3.061 6.904 2.213 0.764 2.855 1.782 2.817 3.095-0.023 0.8-4.395 12.378-5.842 17.536h30.432c-0.867-3.257-5.122-15.915-5.972-19.258 2.384-0.592 4.658-0.959 6.783-1.734C49.632 40.927 50.982 37.774 49.724 33.541zM42.303 38.308c0 0-7.087 0.195-7.564 2.969 0 0-4.98-1.534-6.892-0.862 0 0-0.477-0.764 0-1.149l8.518-6.892c0 0 4.79-2.774 6.8 2.774C43.165 35.149 43.544 37.257 42.303 38.308zM44.216 32.53c-2.183 0-3.951-1.769-3.951-3.946 0-2.183 1.769-3.951 3.951-3.951 2.182 0 3.946 1.769 3.946 3.951C48.162 30.761 46.399 32.53 44.216 32.53z" data-fill-palette-color="accent"></path></g></g></svg></g></svg></g></svg></g><defs></defs></svg><rect width="395.52" height="91.53804471847734" fill="none" stroke="none" visibility="hidden"></rect></g></svg></g></svg>